# Blender v2.93.4 OBJ File: 'remake all in pytorch.blend'
# www.blender.org
mtllib camera.mtl
o camera_1_camera.002
v -1.000000 -1.000000 1.000000
v 1.000000 -1.000000 1.000000
v -1.000000 -1.000000 -1.000000
v 1.000000 -1.000000 -1.000000
v 0.000000 0.000000 0.000000
v -0.306667 -1.000000 -1.066667
v 0.303333 -1.000000 -1.066667
v 0.003333 -1.000000 -1.466667
vt 0.000000 0.000000
vt 0.000000 0.000000
vt 0.000000 0.000000
vt 0.187664 0.000000
vt 1.000000 0.000000
vt 1.000000 1.000000
vt 0.000000 1.000000
vn 0.0000 -1.0000 0.0000
vn 0.0000 1.0000 0.0000
usemtl None.002
s off
f 7/1/1 6/2/1 8/3/1
s 1
f 1/4/2 2/5/2 4/6/2 3/7/2
l 1 5
l 2 5
l 3 5
l 4 5
